<mxfile host="Electron" modified="2023-09-06T01:09:21.188Z" agent="Mozilla/5.0 (Windows NT 10.0; Win64; x64) AppleWebKit/537.36 (KHTML, like Gecko) draw.io/21.6.8 Chrome/114.0.5735.289 Electron/25.5.0 Safari/537.36" etag="syhLK2CEsz7bRtVLHAZp" version="21.6.8" type="device">
  <diagram name="Page-1" id="0lEpzBnTn142D1Z_l5c8">
    <mxGraphModel dx="1728" dy="997" grid="1" gridSize="10" guides="1" tooltips="1" connect="1" arrows="1" fold="1" page="1" pageScale="1" pageWidth="1600" pageHeight="900" math="0" shadow="0">
      <root>
        <mxCell id="0" />
        <mxCell id="1" parent="0" />
        <mxCell id="U2ce6WpmUq3N3-owY_nv-1" value="" style="ellipse;html=1;shape=startState;fillColor=#000000;strokeColor=#ff0000;" vertex="1" parent="1">
          <mxGeometry x="270" y="70" width="30" height="30" as="geometry" />
        </mxCell>
        <mxCell id="U2ce6WpmUq3N3-owY_nv-2" value="" style="edgeStyle=orthogonalEdgeStyle;html=1;verticalAlign=bottom;endArrow=open;endSize=8;strokeColor=#ff0000;rounded=0;entryX=0.496;entryY=-0.019;entryDx=0;entryDy=0;entryPerimeter=0;" edge="1" source="U2ce6WpmUq3N3-owY_nv-1" parent="1" target="U2ce6WpmUq3N3-owY_nv-6">
          <mxGeometry relative="1" as="geometry">
            <mxPoint x="285" y="160" as="targetPoint" />
          </mxGeometry>
        </mxCell>
        <mxCell id="U2ce6WpmUq3N3-owY_nv-5" style="edgeStyle=orthogonalEdgeStyle;rounded=0;orthogonalLoop=1;jettySize=auto;html=1;endArrow=none;endFill=0;dashed=1;" edge="1" parent="1" source="U2ce6WpmUq3N3-owY_nv-3" target="U2ce6WpmUq3N3-owY_nv-1">
          <mxGeometry relative="1" as="geometry" />
        </mxCell>
        <mxCell id="U2ce6WpmUq3N3-owY_nv-3" value="Logged In Users decides to change passowrd in settings&amp;nbsp;&lt;br&gt;in the user dashboard" style="shape=note;whiteSpace=wrap;html=1;backgroundOutline=1;darkOpacity=0.05;" vertex="1" parent="1">
          <mxGeometry x="40" y="35" width="160" height="100" as="geometry" />
        </mxCell>
        <mxCell id="U2ce6WpmUq3N3-owY_nv-4" value="" style="ellipse;html=1;shape=endState;fillColor=#000000;strokeColor=#ff0000;" vertex="1" parent="1">
          <mxGeometry x="270" y="790" width="30" height="30" as="geometry" />
        </mxCell>
        <mxCell id="U2ce6WpmUq3N3-owY_nv-8" value="" style="edgeStyle=orthogonalEdgeStyle;rounded=0;orthogonalLoop=1;jettySize=auto;html=1;" edge="1" parent="1" source="U2ce6WpmUq3N3-owY_nv-6" target="U2ce6WpmUq3N3-owY_nv-7">
          <mxGeometry relative="1" as="geometry" />
        </mxCell>
        <mxCell id="U2ce6WpmUq3N3-owY_nv-6" value="select change Password" style="rounded=1;whiteSpace=wrap;html=1;" vertex="1" parent="1">
          <mxGeometry x="225" y="170" width="120" height="60" as="geometry" />
        </mxCell>
        <mxCell id="U2ce6WpmUq3N3-owY_nv-10" value="" style="edgeStyle=orthogonalEdgeStyle;rounded=0;orthogonalLoop=1;jettySize=auto;html=1;" edge="1" parent="1" source="U2ce6WpmUq3N3-owY_nv-7" target="U2ce6WpmUq3N3-owY_nv-9">
          <mxGeometry relative="1" as="geometry" />
        </mxCell>
        <mxCell id="U2ce6WpmUq3N3-owY_nv-7" value="inputs current Password" style="rounded=1;whiteSpace=wrap;html=1;" vertex="1" parent="1">
          <mxGeometry x="225" y="310" width="120" height="60" as="geometry" />
        </mxCell>
        <mxCell id="U2ce6WpmUq3N3-owY_nv-11" style="edgeStyle=orthogonalEdgeStyle;rounded=0;orthogonalLoop=1;jettySize=auto;html=1;" edge="1" parent="1" source="U2ce6WpmUq3N3-owY_nv-9">
          <mxGeometry relative="1" as="geometry">
            <mxPoint x="640" y="460" as="targetPoint" />
          </mxGeometry>
        </mxCell>
        <mxCell id="U2ce6WpmUq3N3-owY_nv-9" value="Update password" style="rounded=1;whiteSpace=wrap;html=1;" vertex="1" parent="1">
          <mxGeometry x="225" y="430" width="120" height="60" as="geometry" />
        </mxCell>
        <mxCell id="U2ce6WpmUq3N3-owY_nv-16" style="edgeStyle=orthogonalEdgeStyle;rounded=0;orthogonalLoop=1;jettySize=auto;html=1;exitX=1;exitY=0.5;exitDx=0;exitDy=0;entryX=0;entryY=0.5;entryDx=0;entryDy=0;" edge="1" parent="1" source="U2ce6WpmUq3N3-owY_nv-12" target="U2ce6WpmUq3N3-owY_nv-15">
          <mxGeometry relative="1" as="geometry" />
        </mxCell>
        <mxCell id="U2ce6WpmUq3N3-owY_nv-12" value="Check Password Validation Rules" style="rounded=1;whiteSpace=wrap;html=1;" vertex="1" parent="1">
          <mxGeometry x="640" y="430" width="120" height="60" as="geometry" />
        </mxCell>
        <mxCell id="U2ce6WpmUq3N3-owY_nv-18" style="edgeStyle=orthogonalEdgeStyle;rounded=0;orthogonalLoop=1;jettySize=auto;html=1;exitX=0.5;exitY=1;exitDx=0;exitDy=0;entryX=0.5;entryY=0;entryDx=0;entryDy=0;" edge="1" parent="1" source="U2ce6WpmUq3N3-owY_nv-15" target="U2ce6WpmUq3N3-owY_nv-17">
          <mxGeometry relative="1" as="geometry" />
        </mxCell>
        <mxCell id="U2ce6WpmUq3N3-owY_nv-19" style="edgeStyle=orthogonalEdgeStyle;rounded=0;orthogonalLoop=1;jettySize=auto;html=1;exitX=0.5;exitY=0;exitDx=0;exitDy=0;entryX=1;entryY=0.5;entryDx=0;entryDy=0;" edge="1" parent="1" source="U2ce6WpmUq3N3-owY_nv-15" target="U2ce6WpmUq3N3-owY_nv-20">
          <mxGeometry relative="1" as="geometry">
            <mxPoint x="790" y="340" as="targetPoint" />
          </mxGeometry>
        </mxCell>
        <mxCell id="U2ce6WpmUq3N3-owY_nv-15" value="Password Valid" style="rhombus;whiteSpace=wrap;html=1;" vertex="1" parent="1">
          <mxGeometry x="820" y="420" width="170" height="80" as="geometry" />
        </mxCell>
        <mxCell id="U2ce6WpmUq3N3-owY_nv-22" style="edgeStyle=orthogonalEdgeStyle;rounded=0;orthogonalLoop=1;jettySize=auto;html=1;" edge="1" parent="1" source="U2ce6WpmUq3N3-owY_nv-17" target="U2ce6WpmUq3N3-owY_nv-4">
          <mxGeometry relative="1" as="geometry" />
        </mxCell>
        <mxCell id="U2ce6WpmUq3N3-owY_nv-17" value="Update Password" style="rounded=1;whiteSpace=wrap;html=1;" vertex="1" parent="1">
          <mxGeometry x="845" y="530" width="120" height="60" as="geometry" />
        </mxCell>
        <mxCell id="U2ce6WpmUq3N3-owY_nv-21" style="edgeStyle=orthogonalEdgeStyle;rounded=0;orthogonalLoop=1;jettySize=auto;html=1;" edge="1" parent="1" source="U2ce6WpmUq3N3-owY_nv-20" target="U2ce6WpmUq3N3-owY_nv-7">
          <mxGeometry relative="1" as="geometry">
            <Array as="points">
              <mxPoint x="410" y="350" />
              <mxPoint x="410" y="350" />
            </Array>
          </mxGeometry>
        </mxCell>
        <mxCell id="U2ce6WpmUq3N3-owY_nv-20" value="Error Message&quot; Password rules not met&quot;" style="rounded=1;whiteSpace=wrap;html=1;" vertex="1" parent="1">
          <mxGeometry x="640" y="320" width="120" height="60" as="geometry" />
        </mxCell>
        <mxCell id="U2ce6WpmUq3N3-owY_nv-23" value="User" style="swimlane;whiteSpace=wrap;html=1;" vertex="1" parent="1">
          <mxGeometry x="40" y="10" width="580" height="840" as="geometry" />
        </mxCell>
        <mxCell id="U2ce6WpmUq3N3-owY_nv-24" value="System" style="swimlane;whiteSpace=wrap;html=1;" vertex="1" parent="1">
          <mxGeometry x="620" y="10" width="580" height="840" as="geometry" />
        </mxCell>
      </root>
    </mxGraphModel>
  </diagram>
</mxfile>
